<?xml version="1.0" encoding="UTF-8" standalone="no"?>
<svg viewBox="0 0 500 500" version="1.1" xmlns="http://www.w3.org/2000/svg" xmlns:xlink="http://www.w3.org/1999/xlink">
  <title>Communications Design Group Logo</title>
	<defs>
		<!-- Edit here to change the logo colors. -->
		<style type="text/css"><![CDATA[
			.cdg-logo {
				fill: black;
			}
			.letter-background {
				fill: white;
			}
		]]></style>
  </defs>
  <g class="cdg-logo">
    <path d="M44,47 L44,187 L184,187 L184,47 L44,47 Z M314,314 L314,454 L454,454 L454,314 L314,314 Z M314,47 L314,187 L454,187 L454,47 L314,47 Z" class="letter-background" fill="#FFFFFF"></path>
    <path d="M402.741228,272.134509 L402.741228,227.865491 C457.803263,219.514641 500,171.976775 500,114.583333 C500,51.3007058 448.699294,0 385.416667,0 C328.290197,0 280.927828,41.8050842 272.253585,96.4912281 L227.746415,96.4912281 C219.072172,41.8050842 171.709803,0 114.583333,0 C51.3007058,0 0,51.3007058 0,114.583333 C0,177.865961 51.3007058,229.166667 114.583333,229.166667 C171.976775,229.166667 219.514641,186.96993 227.865491,131.907895 L227.865491,131.907895 L272.134509,131.907895 L272.134509,131.907895 C279.589627,181.063844 318.27603,219.966402 367.324561,227.746415 L367.324561,272.253585 C312.638418,280.927828 270.833333,328.290197 270.833333,385.416667 C270.833333,448.699294 322.134039,500 385.416667,500 C448.699294,500 500,448.699294 500,385.416667 C500,328.023225 457.803263,280.485359 402.741228,272.134509 L402.741228,272.134509 Z M141,86.4631579 C137.099981,82.2631369 133.325018,79.4631649 129.675,78.0631579 C126.024982,76.6631509 122.350019,75.9631579 118.65,75.9631579 C113.149972,75.9631579 108.175022,76.9381481 103.725,78.8881579 C99.2749777,80.8381676 95.450016,83.5381406 92.25,86.9881579 C89.049984,90.4381751 86.5750088,94.4631349 84.825,99.0631579 C83.0749912,103.663181 82.2,108.613131 82.2,113.913158 C82.2,119.613186 83.0749912,124.863134 84.825,129.663158 C86.5750088,134.463182 89.049984,138.61314 92.25,142.113158 C95.450016,145.613175 99.2749777,148.363148 103.725,150.363158 C108.175022,152.363168 113.149972,153.363158 118.65,153.363158 C122.950022,153.363158 127.12498,152.338168 131.175,150.288158 C135.22502,148.238148 138.999983,144.96318 142.5,140.463158 L158.1,151.563158 C153.299976,158.163191 147.450035,162.963143 140.55,165.963158 C133.649965,168.963173 126.300039,170.463158 118.5,170.463158 C110.299959,170.463158 102.775034,169.138171 95.925,166.488158 C89.0749658,163.838145 83.1750248,160.088182 78.225,155.238158 C73.2749752,150.388134 69.400014,144.563192 66.6,137.763158 C63.799986,130.963124 62.4,123.413199 62.4,115.113158 C62.4,106.613115 63.799986,98.8881926 66.6,91.9381579 C69.400014,84.9881231 73.2749752,79.0631824 78.225,74.1631579 C83.1750248,69.2631334 89.0749658,65.4881711 95.925,62.8381579 C102.775034,60.1881446 110.299959,58.8631579 118.5,58.8631579 C125.700036,58.8631579 132.374969,60.1381451 138.525,62.6881579 C144.675031,65.2381706 150.399973,69.5631274 155.7,75.6631579 L141,86.4631579 Z M343.201754,61.4035088 L385.051754,61.4035088 C392.051789,61.4035088 398.801722,62.478498 405.301754,64.6285088 C411.801787,66.7785195 417.551729,70.0534868 422.551754,74.4535088 C427.551779,78.8535308 431.551739,84.3784755 434.551754,91.0285088 C437.551769,97.678542 439.051754,105.503464 439.051754,114.503509 C439.051754,123.603554 437.326772,131.478476 433.876754,138.128509 C430.426737,144.778542 425.976782,150.278487 420.526754,154.628509 C415.076727,158.978531 409.026788,162.228498 402.376754,164.378509 C395.726721,166.52852 389.201786,167.603509 382.801754,167.603509 L343.201754,167.603509 L343.201754,61.4035088 Z M376.201754,150.503509 C382.101784,150.503509 387.676728,149.828516 392.926754,148.478509 C398.176781,147.128502 402.751735,145.028523 406.651754,142.178509 C410.551774,139.328495 413.626743,135.628532 415.876754,131.078509 C418.126766,126.528486 419.251754,121.003541 419.251754,114.503509 C419.251754,108.103477 418.251764,102.603532 416.251754,98.0035088 C414.251744,93.4034858 411.476772,89.678523 407.926754,86.8285088 C404.376737,83.9784945 400.176779,81.8785155 395.326754,80.5285088 C390.47673,79.178502 385.151783,78.5035088 379.351754,78.5035088 L362.101754,78.5035088 L362.101754,150.503509 L376.201754,150.503509 Z M431.190351,432.240351 C418.090285,439.240386 403.440432,442.740351 387.240351,442.740351 C379.04031,442.740351 371.515385,441.415364 364.665351,438.765351 C357.815317,436.115338 351.915376,432.365375 346.965351,427.515351 C342.015326,422.665327 338.140365,416.840385 335.340351,410.040351 C332.540337,403.240317 331.140351,395.690392 331.140351,387.390351 C331.140351,378.890308 332.540337,371.165386 335.340351,364.215351 C338.140365,357.265316 342.015326,351.340375 346.965351,346.440351 C351.915376,341.540326 357.815317,337.765364 364.665351,335.115351 C371.515385,332.465338 379.04031,331.140351 387.240351,331.140351 C395.340391,331.140351 402.940315,332.115341 410.040351,334.065351 C417.140386,336.015361 423.490323,339.490326 429.090351,344.490351 L415.140351,358.590351 C411.740334,355.290334 407.615375,352.74036 402.765351,350.940351 C397.915327,349.140342 392.790378,348.240351 387.390351,348.240351 C381.890323,348.240351 376.915373,349.215341 372.465351,351.165351 C368.015329,353.115361 364.190367,355.815334 360.990351,359.265351 C357.790335,362.715368 355.31536,366.740328 353.565351,371.340351 C351.815342,375.940374 350.940351,380.890324 350.940351,386.190351 C350.940351,391.890379 351.815342,397.140327 353.565351,401.940351 C355.31536,406.740375 357.790335,410.890333 360.990351,414.390351 C364.190367,417.890368 368.015329,420.640341 372.465351,422.640351 C376.915373,424.640361 381.890323,425.640351 387.390351,425.640351 C392.190375,425.640351 396.71533,425.190355 400.965351,424.290351 C405.215372,423.390346 408.990334,421.99036 412.290351,420.090351 L412.290351,395.040351 L390.540351,395.040351 L390.540351,377.940351 L431.190351,377.940351 L431.190351,432.240351 Z"></path>
  </g>
</svg>
